<svg xmlns="http://www.w3.org/2000/svg" width="300" height="165" viewBox="0 0 300 165">
    <defs>
        <linearGradient id="a" x1="95.364%" x2="2.674%" y1="120.266%" y2="51.971%">
            <stop offset="0%" stop-color="#A5E2B5" stop-opacity=".851"/>
            <stop offset="100%" stop-color="#E94F3F" stop-opacity=".542"/>
        </linearGradient>
        <linearGradient id="b" x1="22.705%" x2="12.412%" y1="22.964%" y2="134.278%">
            <stop offset="0%" stop-color="#6736B1" stop-opacity=".744"/>
            <stop offset="100%" stop-color="#D6AEEB" stop-opacity=".48"/>
        </linearGradient>
    </defs>
    <g fill="none" fill-rule="evenodd">
        <path fill="url(#a)" d="M239.607 323.842c160.97 1.285 187.294-21.12 149.41-84.45-37.885-63.329-15.45-195.28-146.342-195.28-130.892 0-169.495 91.352-203.794 186.986-34.3 95.633 39.757 91.46 200.726 92.744z" transform="rotate(15 891.288 -97.89)"/>
        <path fill="url(#b)" fill-rule="nonzero" d="M97.633 271.914c-17.729-.704-32.233-5.554-43.575-14.562-2.164-1.72-7.322-6.88-9.052-9.056-4.6-5.782-7.726-11.408-9.812-17.651-6.417-19.217-3.114-44.434 9.448-72.11 10.755-23.694 27.351-47.193 56.306-79.74C105.213 74.006 117.915 60 117.996 60c.03 0-.661 1.199-1.533 2.659-7.528 12.607-13.97 27.457-17.48 40.313-5.636 20.628-4.956 38.33 1.992 52.058 4.794 9.456 13.011 17.648 22.252 22.176 16.177 7.924 39.862 8.58 68.786 1.918 1.992-.461 100.67-26.65 219.288-58.198C529.918 89.376 626.985 63.581 627 63.602c.033.028-275.582 117.935-418.658 179.104-22.658 9.684-28.718 12.13-39.37 15.87-27.23 9.56-51.622 14.12-71.339 13.338z" style="mix-blend-mode:color-burn" transform="translate(-50 -184)"/>
    </g>
</svg>
